<svg width="24" height="25" viewBox="0 0 24 25" fill="none" xmlns="http://www.w3.org/2000/svg">
<path d="M17.4001 11.2103V12.7034C17.4001 14.0894 16.8312 15.4186 15.8185 16.3986C14.8058 17.3787 13.4323 17.9292 12.0001 17.9292M12.0001 17.9292C10.5679 17.9292 9.19442 17.3787 8.18172 16.3986C7.16902 15.4186 6.6001 14.0894 6.6001 12.7034V11.2103M12.0001 17.9292V20.9154M8.91438 20.9154H15.0858M12.0001 4.49146C11.3863 4.49146 10.7977 4.72742 10.3637 5.14743C9.92964 5.56744 9.68581 6.1371 9.68581 6.73109V12.7034C9.68581 13.2974 9.92964 13.8671 10.3637 14.2871C10.7977 14.7071 11.3863 14.9431 12.0001 14.9431C12.6139 14.9431 13.2025 14.7071 13.6365 14.2871C14.0706 13.8671 14.3144 13.2974 14.3144 12.7034V6.73109C14.3144 6.1371 14.0706 5.56744 13.6365 5.14743C13.2025 4.72742 12.6139 4.49146 12.0001 4.49146Z" stroke="#9CA3AF" stroke-width="1.5" stroke-linecap="round" stroke-linejoin="round"/>
</svg>
