<svg width="13" height="17" viewBox="0 0 13 17" fill="none" xmlns="http://www.w3.org/2000/svg">
<g clip-path="url(#clip0_44_1075)">
<path d="M2.06176 13.1248H1.10791V12.2171H2.06176C2.98483 12.2171 3.83099 11.8018 4.38483 11.0633L5.10791 11.6171C4.38483 12.571 3.26176 13.1248 2.06176 13.1248ZM5.76945 5.83252L6.49253 6.38637C7.04637 5.66329 7.89253 5.26329 8.80022 5.26329H10.5387L9.64637 6.1556L10.2925 6.80175L12.2771 4.81714L10.2925 2.81714L9.64637 3.46329L10.5387 4.3556H8.78483C7.60022 4.3556 6.49253 4.89406 5.76945 5.83252ZM10.2925 14.6633L12.2771 12.6787L10.2925 10.6787L9.64637 11.3248L10.5387 12.2171H8.78483C7.18483 12.2171 5.87714 10.9094 5.87714 9.30945V8.18637V8.03252C5.80022 6.00175 4.10791 4.37098 2.06176 4.37098H1.10791V5.27868H2.06176C3.66176 5.27868 4.96945 6.58637 4.96945 8.18637V9.30945V9.46329C5.04637 11.4941 6.73868 13.1248 8.78483 13.1248H10.5387L9.64637 14.0171L10.2925 14.6633Z" fill="#9CA3AF"/>
</g>
<defs>
<clipPath id="clip0_44_1075">
<rect width="11.3846" height="12" fill="#9CA3AF" transform="translate(1 2.74023)"/>
</clipPath>
</defs>
</svg>
