<svg width="17" height="17" viewBox="0 0 17 17" fill="none" xmlns="http://www.w3.org/2000/svg">
<path d="M4.7515 5.2607C4.81829 5.00993 5.17417 5.00993 5.24095 5.2607L6.01082 8.15142C6.03244 8.23264 6.09296 8.29783 6.17234 8.32544L8.80481 9.24115C9.03155 9.32002 9.03155 9.64067 8.80481 9.71954L6.17233 10.6352C6.09295 10.6629 6.03244 10.7281 6.01082 10.8093L5.24095 13.7C5.17417 13.9508 4.81829 13.9508 4.7515 13.7L3.98164 10.8093C3.96001 10.7281 3.8995 10.6629 3.82012 10.6352L1.18764 9.71954C0.960909 9.64067 0.96091 9.32002 1.18764 9.24115L3.82012 8.32544C3.8995 8.29783 3.96001 8.23264 3.98164 8.15142L4.7515 5.2607Z" fill="#9CA3AF"/>
<path d="M11.9502 2.51902C12.0141 2.16291 12.5248 2.16291 12.5888 2.51902L12.7828 3.60023C12.8025 3.71 12.8772 3.80195 12.9806 3.84371L14.094 4.29336C14.3645 4.40262 14.3645 4.78566 14.094 4.89493L12.9806 5.34458C12.8772 5.38634 12.8025 5.47829 12.7828 5.58805L12.5888 6.66927C12.5248 7.02537 12.0141 7.02537 11.9502 6.66927L11.7561 5.58805C11.7364 5.47829 11.6617 5.38634 11.5583 5.34458L10.445 4.89493C10.1744 4.78566 10.1744 4.40262 10.445 4.29336L11.5583 3.84371C11.6617 3.80195 11.7364 3.71 11.7561 3.60023L11.9502 2.51902Z" fill="#9CA3AF"/>
<path d="M11.1241 10.1647C11.1601 9.92186 11.5103 9.92186 11.5463 10.1647L11.7283 11.3928C11.7406 11.4759 11.8006 11.5441 11.8815 11.5669L13.0423 11.8941C13.2496 11.9525 13.2496 12.2464 13.0423 12.3049L11.8815 12.6321C11.8006 12.6549 11.7406 12.7231 11.7283 12.8062L11.5463 14.0343C11.5103 14.2771 11.1601 14.2771 11.1241 14.0343L10.9421 12.8062C10.9298 12.7231 10.8698 12.6549 10.7889 12.6321L9.62813 12.3049C9.42077 12.2464 9.42077 11.9525 9.62813 11.8941L10.7889 11.5669C10.8698 11.5441 10.9298 11.4759 10.9421 11.3928L11.1241 10.1647Z" fill="#9CA3AF"/>
</svg>
